<?xml version="1.0" encoding="UTF-8" standalone="no"?>
<!-- Created with Inkscape (http://www.inkscape.org/) -->

<svg
   width="350mm"
   height="350mm"
   viewBox="0 0 350 350"
   version="1.1"
   id="svg5"
   xml:space="preserve"
   inkscape:version="1.3 (0e150ed6c4, 2023-07-21)"
   sodipodi:docname="clave-de-sol-2.svg"
   xmlns:inkscape="http://www.inkscape.org/namespaces/inkscape"
   xmlns:sodipodi="http://sodipodi.sourceforge.net/DTD/sodipodi-0.dtd"
   xmlns:xlink="http://www.w3.org/1999/xlink"
   xmlns="http://www.w3.org/2000/svg"
   xmlns:svg="http://www.w3.org/2000/svg"><sodipodi:namedview
     id="namedview7"
     pagecolor="#ffffff"
     bordercolor="#000000"
     borderopacity="0.25"
     inkscape:showpageshadow="2"
     inkscape:pageopacity="0.0"
     inkscape:pagecheckerboard="0"
     inkscape:deskcolor="#d1d1d1"
     inkscape:document-units="mm"
     showgrid="false"
     inkscape:zoom="0.43030394"
     inkscape:cx="808.73068"
     inkscape:cy="776.19554"
     inkscape:window-width="1920"
     inkscape:window-height="1011"
     inkscape:window-x="0"
     inkscape:window-y="0"
     inkscape:window-maximized="1"
     inkscape:current-layer="layer1"
     showguides="true" /><defs
     id="defs2"><marker
       style="overflow:visible"
       id="Triangle"
       refX="0"
       refY="0"
       orient="auto-start-reverse"
       inkscape:stockid="Triangle arrow"
       markerWidth="0.5"
       markerHeight="0.5"
       viewBox="0 0 1 1"
       inkscape:isstock="true"
       inkscape:collect="always"
       preserveAspectRatio="xMidYMid"><path
         transform="scale(0.5)"
         style="fill:context-stroke;fill-rule:evenodd;stroke:context-stroke;stroke-width:1pt"
         d="M 5.77,0 -2.88,5 V -5 Z"
         id="path135" /></marker></defs><g
     inkscape:label="Capa 1"
     inkscape:groupmode="layer"
     id="layer1"><g
       id="g1"><ellipse
         style="fill:none;stroke:#000000;stroke-width:3.49999"
         id="path26"
         cx="175"
         cy="175"
         rx="148.79504"
         ry="147.94569" /><rect
         style="fill:#ff2a2a;stroke:none;stroke-width:3"
         id="rect31"
         width="28.306149"
         height="12.11794"
         x="175.50395"
         y="74.548645" /><path
         style="fill:#ff2a2a;stroke:none;stroke-width:3"
         d="m 175.5436,83.974717 28.2665,-0.196303 v 2.888369 l -28.30615,12.117239 z"
         id="path32" /><rect
         style="fill:#ff2a2a;stroke:none;stroke-width:3.11734"
         id="rect29"
         width="30.155958"
         height="19.698559"
         x="175"
         y="134.26738" /><path
         style="fill:#ff2a2a;stroke:none;stroke-width:3"
         d="m 175,137.94824 31.00011,0.23222 1.13752,-17.4603 -29.91032,13.54539 z"
         id="path31" /><path
         style="fill:#ff2a2a;stroke:none;stroke-width:3"
         d="m 176.14392,238.44751 v -3.68694 l 27.90837,-2.49517 -0.24238,5.15364 -13.46023,3.58052 z"
         id="path29" /><rect
         style="fill:#ff2a2a;stroke:none;stroke-width:3"
         id="rect28"
         width="29.012049"
         height="51.144161"
         x="176.14392"
         y="187.30334" /><path
         style="fill:#ff2a2a;stroke:none;stroke-width:3"
         d="m 176.14392,191.83362 v -4.53028 l 15.07507,-5.17576 12.59092,2.79653 0.24238,6.16987 z"
         id="path28" /><path
         style="fill:#ff2a2a;stroke:#ffffff;stroke-width:4;stroke-dasharray:none"
         d="M 189.65702,240.99956 V 182.42604"
         id="path33" /><path
         style="fill:#ff2a2a;stroke:#ffffff;stroke-width:4;stroke-dasharray:none"
         d="M 189.65702,153.96594 V 128.44591"
         id="path34" /><path
         style="fill:#ff2a2a;stroke:#ffffff;stroke-width:3.5;marker-end:url(#Triangle);stroke-dasharray:none"
         d="M 189.65702,92.7254 V 83.876702"
         id="path35" /><rect
         style="fill:#ff2a2a;stroke:none;stroke-width:3;stroke-dasharray:none"
         id="rect39"
         width="29.854912"
         height="8.3189001"
         x="174.19737"
         y="268.38" /><path
         style="fill:#ff2a2a;stroke:#ffffff;stroke-width:4;stroke-dasharray:none"
         d="m 189.65701,268.37999 10e-6,5.13385"
         id="path40" /><rect
         style="fill:#ffffff;stroke:none;stroke-width:3.49999"
         id="rect48"
         width="52.618546"
         height="15.047137"
         x="182.21814"
         y="23.926197" /><rect
         style="fill:#ffffff;stroke:none;stroke-width:3.49999"
         id="rect49"
         width="47.541611"
         height="15.027286"
         x="219.33337"
         y="-78.182549"
         transform="rotate(26.748364)" /><rect
         style="fill:#ffffff;stroke:none;stroke-width:3.38188"
         id="rect50"
         width="91.546616"
         height="28.642153"
         x="107.97168"
         y="297.15436" /><a
         id="a26"><path
           style="fill:none;stroke:#0a0a0a;stroke-width:4.40054;stroke-dasharray:none"
           d="m 107.10163,307.42373 c 1.15026,11.0234 12.39459,21.74845 26.71505,30.02616 16.35958,9.48138 36.67657,9.76605 50.83946,-1.12467 2.63518,-2.23559 4.48207,-3.05555 9.57559,-7.96844 3.43045,-3.3088 6.01795,-13.61837 7.09611,-18.25004 3.40007,-14.59226 2.48207,-30.89391 2.48207,-41.72673 -4.42574,0 -8.91338,-0.0525 -14.80491,0.0105 -4.06398,0.32304 -10.01462,0.15004 -14.80762,-0.0105 -0.96281,4.99398 0.0534,11.47891 -0.15312,16.15641 -0.0105,11.43581 2.01621,24.43569 -10.6337,29.57349 -7.97791,3.23988 -16.80916,0.0834 -21.60772,-6.79067 -5.47831,-7.85001 -4.66529,-22.12462 -17.40811,-22.96317 -8.0742,-0.97926 -15.07554,2.41248 -17.2841,9.52567 -0.81795,2.84746 -0.36499,7.72077 -0.009,13.54199 M 182.21814,23.926198 c 3.50563,-5.288778 7.67409,-9.739466 9.97594,-10.798197 11.51115,-6.3276437 27.39953,-5.4555745 41.2286,-2.02335 14.98662,3.719708 33.08272,20.340232 36.31449,35.097514 1.25608,7.209689 0.38615,10.804285 0.38615,10.804285 M 182.21814,23.926198 c -6.12828,9.234856 -6.941,38.695742 -6.73013,58.747314 0.003,5.49707 -0.98677,13.062532 -1.62826,18.051128 -9.54165,5.56559 -20.95495,11.30925 -30.62072,16.27881 -27.73615,14.25843 -53.75509,35.70059 -55.112294,69.26911 -1.147914,28.39302 11.786437,52.95523 36.267994,67.91363 14.91261,9.11259 37.03315,12.47898 49.80286,14.19382 M 203.8101,86.666785 V 74.54865 c 0,-7.900633 -1.5358,-20.619065 2.41481,-28.109402 4.53745,-8.600545 16.02037,-11.677531 24.45721,-6.557681 11.78177,7.149138 11.19488,21.021933 2.32461,30.277425 -9.95923,10.392565 -19.6977,14.316226 -29.19663,16.507793 M 270.12332,57.00645 c -1.8478,7.908545 -12.58767,29.487925 -24.60393,38.895014 -11.50598,9.007606 -25.76339,16.204206 -38.38176,24.818696 -0.37279,5.72205 -0.18925,11.91052 -1.13752,17.4603 -0.84415,5.9362 0.31388,11.81452 -0.84415,15.78548 -4.26853,-0.0356 -11.40026,-0.5106 -16.06692,-0.15566 -5.08016,0.0407 -9.54914,1.71153 -14.89166,2.84713 1.77287,-17.68027 -0.33811,-21.34663 3.03013,-22.39003 8.11174,-2.51283 18.00307,-8.89811 29.91012,-13.54722 M 203.8101,86.66659 c -8.7374,4.273309 -23.51488,9.974371 -29.95035,14.05785 M 119.0104,209.15289 c -6.72739,-16.32723 -4.00169,-34.93467 8.484,-48.23073 11.66602,-12.42245 38.40498,-23.21864 49.73291,-26.65661 m 27.92865,19.70039 c 9.50426,2.36897 22.51629,4.97894 34.9966,13.84788 22.45976,15.95979 30.02172,41.05103 18.84435,65.56751 M 119.0104,209.15289 c 4.80884,14.43715 33.54582,27.6838 44.41877,29.92752 4.37461,0.7134 7.7989,1.09297 12.11423,1.60984 5.28044,0.6313 9.21488,0.90723 14.80628,0.30931 5.76232,-0.6151 9.53926,-1.451 14.80628,-2.55205 4.0017,-0.83724 6.70455,-1.15758 10.76816,-2.68663 15.99483,-6.01674 28.59896,-25.42238 14.61378,-39.92042 -4.22514,-4.37994 -10.35496,-8.68454 -15.95978,-10.58109 -4.07979,-1.37831 -7.60237,-1.52906 -12.11423,-2.11053 -5.98712,-0.76993 -9.1368,-1.6691 -16.14556,-0.46448 -5.74616,0.98797 -8.06939,3.3758 -12.56781,6.36532 -3.96004,2.63016 -8.09903,5.25222 -11.66872,7.54849 -6.45552,4.15249 -14.83854,5.44737 -19.48769,-2.47937 -11.23125,-19.15122 22.97795,-34.04764 31.60327,-37.4612 m 29.61253,28.26651 v 52.49493 m -27.666,-50.11569 -0.60051,52.80776 m 83.45351,-6.72978 c -8.48247,19.31617 -41.07112,35.8845 -55.187,34.99868"
           id="path983"
           sodipodi:nodetypes="cccscccccccccccccccccccscccscccccscccccscccccccccccccccsccccscccccccc" /></a><path
         style="fill:#ffffff;stroke-width:3;stroke:#000000"
         d="m 119.52538,327.23859 22.27746,-19.91936"
         id="path1" /><path
         style="fill:#ffffff;stroke:#000000;stroke-width:3"
         d="M 159.6331,342.82237 V 315.16936"
         id="path2" /><path
         style="fill:#ffffff;stroke:#000000;stroke-width:3"
         d="m 172.8943,306.67284 27.16837,7.27974"
         id="path3" /><path
         style="fill:#ffffff;stroke:#000000;stroke-width:3"
         d="M 203.8101,74.54865 H 175.50395"
         id="path4" /><path
         style="fill:#ffffff;stroke:#000000;stroke-width:3"
         d="M 206.22491,46.439248 178.16325,36.125115"
         id="path5" /><path
         style="fill:#ffffff;stroke:#000000;stroke-width:3"
         d="M 219.66427,37.509009 218.5755,8.7130384"
         id="path6"
         sodipodi:nodetypes="cc" /><path
         style="fill:#ffffff;stroke:#000000;stroke-width:3"
         d="M 237.47044,47.847159 264.26798,34.787887"
         id="path7" /><path
         style="fill:#ffffff;stroke:#000000;stroke-width:3"
         d="m 233.00673,70.15899 25.74781,11.372511"
         id="path8" /><path
         style="fill:#ffffff;stroke:#000000;stroke-width:3"
         d="m 212.56533,84.044718 16.0598,23.382652"
         id="path9" /><path
         style="fill:#ffffff;stroke:#000000;stroke-width:3"
         d="m 179.89708,97.468527 12.40915,29.558013"
         id="path10" /><path
         style="fill:#ffffff;stroke:#000000;stroke-width:3"
         d="m 147.51388,114.8106 11.78183,26.25364"
         id="path11" /><path
         style="fill:#ffffff;stroke:#000000;stroke-width:3"
         d="m 114.33215,136.01993 17.96089,20.50998"
         id="path12" /><path
         style="fill:#ffffff;stroke:#000000;stroke-width:3"
         d="M 92.663395,165.05953 118.83223,175"
         id="path13" /><path
         style="fill:#ffffff;stroke:#000000;stroke-width:3"
         d="m 88.687351,199.90974 27.255969,-1.80206"
         id="path14" /><path
         style="fill:#ffffff;stroke:#000000;stroke-width:3"
         d="m 102.31533,233.48466 23.47413,-14.51029"
         id="path15" /><path
         style="fill:#ffffff;stroke:#000000;stroke-width:3"
         d="m 131.35647,257.83209 15.82355,-24.75891"
         id="path16" /><path
         style="fill:#ffffff;stroke:#000000;stroke-width:3"
         d="m 167.17317,267.37572 5.07306,-27.07862"
         id="path17" /><path
         style="fill:#ffffff;stroke:#000000;stroke-width:3"
         d="m 208.58827,267.65194 0.11228,-29.90888"
         id="path18" /><path
         style="fill:#ffffff;stroke:#000000;stroke-width:3"
         d="M 246.05293,250.61532 227.80446,228.20153"
         id="path19" /><path
         style="fill:#ffffff;stroke:#000000;stroke-width:3"
         d="m 264.1002,211.46052 -27.17151,-0.25566"
         id="path20" /><path
         style="fill:#ffffff;stroke:#000000;stroke-width:3"
         d="m 248.17828,175 -21.53705,16.29756"
         id="path21" /><path
         style="fill:#ffffff;stroke:#000000;stroke-width:3"
         d="m 213.7893,157.51812 -5.14489,25.63066"
         id="path22" /><path
         style="fill:#ffffff;stroke:#000000;stroke-width:3"
         d="M 168.91248,158.90632 180.09,184.81799"
         id="path23" /><ellipse
         style="fill:#71c837;stroke:none;stroke-width:3"
         id="path24"
         cx="203.70523"
         cy="26.581602"
         rx="10.334567"
         ry="10.592277" /><ellipse
         style="fill:#71c837;stroke:none;stroke-width:3"
         id="path24-61"
         cx="189.18373"
         cy="292.20529"
         rx="10.334567"
         ry="10.592277" /><ellipse
         style="fill:#71c837;stroke:none;stroke-width:3"
         id="path24-62"
         cx="202.20955"
         cy="104.1263"
         rx="10.334567"
         ry="10.592277" /><ellipse
         style="fill:#71c837;stroke:none;stroke-width:3"
         id="path24-62-6"
         cx="190.07961"
         cy="254.89191"
         rx="10.334567"
         ry="10.592277" /><ellipse
         style="fill:#71c837;stroke:none;stroke-width:3"
         id="path24-62-6-6"
         cx="225.57837"
         cy="175.33458"
         rx="10.334567"
         ry="10.592277" /><ellipse
         style="fill:#71c837;stroke:none;stroke-width:3"
         id="path24-62-7"
         cx="102.14758"
         cy="184.78673"
         rx="10.334567"
         ry="10.592277" /><ellipse
         style="fill:#ff6600;stroke:none;stroke-width:3"
         id="path24-3"
         cx="189.97221"
         cy="57.02919"
         rx="10.334567"
         ry="10.592277" /><ellipse
         style="fill:#ff6600;stroke:none;stroke-width:3"
         id="path24-3-5"
         cx="234.83669"
         cy="87.291107"
         rx="10.334567"
         ry="10.592277" /><ellipse
         style="fill:#ff6600;stroke:none;stroke-width:3"
         id="path24-3-5-9"
         cx="125.15269"
         cy="236.85596"
         rx="10.334567"
         ry="10.592277" /><ellipse
         style="fill:#ff6600;stroke:none;stroke-width:2.26132"
         id="path24-3-5-9-26"
         cx="334.72552"
         cy="200.52007"
         rx="7.7899256"
         ry="7.9841805" /><ellipse
         style="fill:#3771c8;stroke:none;stroke-width:2.26132"
         id="path24-3-5-9-26-6"
         cx="297.77335"
         cy="69.896675"
         rx="7.7899256"
         ry="7.9841805" /><ellipse
         style="fill:#ffcc00;stroke:none;stroke-width:2.26132"
         id="path24-3-5-9-26-4"
         cx="19.960751"
         cy="128.10503"
         rx="7.7899256"
         ry="7.9841805" /><ellipse
         style="fill:#71c837;stroke:none;stroke-width:2.26132"
         id="path24-3-5-9-26-9"
         cx="70.760757"
         cy="297.1738"
         rx="7.7899256"
         ry="7.9841805" /><ellipse
         style="fill:#ff6600;stroke:none;stroke-width:3"
         id="path24-3-5-9-2"
         cx="247.37091"
         cy="196.28679"
         rx="10.334567"
         ry="10.592277" /><ellipse
         style="fill:#ff6600;stroke:none;stroke-width:3"
         id="path24-3-5-2"
         cx="113.29285"
         cy="156.84116"
         rx="10.334567"
         ry="10.592277" /><ellipse
         style="fill:#ffcc00;stroke:none;stroke-width:3"
         id="path24-6"
         cx="176.14392"
         cy="322.47299"
         rx="10.334567"
         ry="10.592277" /><ellipse
         style="fill:#ffcc00;stroke:none;stroke-width:3"
         id="path24-6-5"
         cx="237.91402"
         cy="27.62553"
         rx="10.334567"
         ry="10.592277" /><ellipse
         style="fill:#ffcc00;stroke:none;stroke-width:3"
         id="path24-6-5-0"
         cx="105.97763"
         cy="213.7256"
         rx="10.334567"
         ry="10.592277" /><ellipse
         style="fill:#ffcc00;stroke:none;stroke-width:3"
         id="path24-6-5-1"
         cx="138.03586"
         cy="136.06351"
         rx="10.334567"
         ry="10.592277" /><ellipse
         style="fill:#ffcc00;stroke:none;stroke-width:3"
         id="path24-6-5-1-0"
         cx="224.90062"
         cy="247.17827"
         rx="10.334567"
         ry="10.592277" /><ellipse
         style="fill:#ffcc00;stroke:none;stroke-width:3"
         id="path24-6-5-1-0-1"
         cx="193.13506"
         cy="167.81519"
         rx="10.334567"
         ry="10.592277" /><ellipse
         style="fill:#3771c8;stroke:none;stroke-width:3"
         id="path24-7"
         cx="144.35895"
         cy="326.78497"
         rx="10.334567"
         ry="10.592277" /><ellipse
         style="fill:#3771c8;stroke:none;stroke-width:3"
         id="path24-7-3"
         cx="252.75681"
         cy="59.105282"
         rx="10.334567"
         ry="10.592277" /><ellipse
         style="fill:#3771c8;stroke:none;stroke-width:3"
         id="path24-7-3-6"
         cx="246.40681"
         cy="226.77811"
         rx="10.334567"
         ry="10.592277" /><ellipse
         style="fill:#3771c8;stroke:none;stroke-width:3"
         id="path24-7-3-9"
         cx="170.12271"
         cy="120.66446"
         rx="10.334567"
         ry="10.592277" /><ellipse
         style="fill:#3771c8;stroke:none;stroke-width:3"
         id="path24-7-3-9-3"
         cx="154.74077"
         cy="251.08328"
         rx="10.334567"
         ry="10.592277" /><text
         xml:space="preserve"
         style="font-size:24.6832px;line-height:1.1;font-family:D050000L;-inkscape-font-specification:D050000L;fill:#000000;stroke:none;stroke-width:2.50362"
         x="311.68445"
         y="53.900414"
         id="text24"
         transform="rotate(60)"><tspan
           sodipodi:role="line"
           id="tspan24"
           style="fill:#000000;stroke-width:2.50362"
           x="311.68445"
           y="53.900414">+</tspan></text><text
         xml:space="preserve"
         style="font-style:normal;font-variant:normal;font-weight:normal;font-stretch:normal;font-size:15.9593px;line-height:1.1;font-family:'Bitstream Vera Sans';-inkscape-font-specification:'Bitstream Vera Sans';fill:#000000;stroke:none;stroke-width:1.61875"
         x="8.7818422"
         y="246.22812"
         id="text26"
         transform="rotate(-36.253533)"><tspan
           sodipodi:role="line"
           id="tspan26"
           style="font-style:normal;font-variant:normal;font-weight:normal;font-stretch:normal;font-family:Sketchy;-inkscape-font-specification:Sketchy;stroke-width:1.61875"
           x="8.7818422"
           y="246.22812">FIN</tspan></text><path
         style="fill:#ff2a2a;stroke:none;stroke-width:3"
         d="m 175,137.94824 31.00011,0.23222"
         id="path30" /><path
         style="fill:#ff2a2a;stroke:#000000;stroke-width:3;stroke-dasharray:none"
         d="m 175,276.69191 29.05229,0.007"
         id="path39" /><path
         style="fill:#ffffff;stroke:none;stroke-width:5.43445"
         d="m 821.43101,118.23632 c -1.01677,-0.30894 -4.6217,-1.3191 -8.01095,-2.2448 -3.38925,-0.92569 -6.22521,-1.73793 -6.30214,-1.80496 -0.0769,-0.067 0.25695,-1.66113 0.74194,-3.54244 2.33598,-9.06149 1.16947,-20.262442 -2.96607,-28.480478 -4.14476,-8.236359 -11.51571,-15.273654 -19.60198,-18.714669 -5.64009,-2.400074 -8.61823,-2.974638 -15.41848,-2.974638 -7.57314,0 -10.70725,0.727973 -17.25437,4.007753 -12.29893,6.161148 -20.41109,18.154451 -21.79772,32.226499 l -0.29414,2.985054 -1.27861,-0.225124 c -2.1972,-0.386859 -17.76558,-1.87898 -25.85277,-2.477809 -4.25183,-0.31483 -7.83478,-0.676593 -7.9621,-0.803913 -0.5761,-0.576099 10.55741,-15.421886 17.57606,-23.436496 8.3857,-9.575643 12.97963,-13.358065 21.19635,-17.452047 14.84454,-7.396287 30.30677,-11.632548 50.66216,-13.880151 4.7404,-0.523425 10.05963,-0.708728 20.8145,-0.725103 7.94574,-0.0121 14.5386,0.07044 14.65079,0.183414 0.20563,0.207081 3.24198,77.719358 3.04961,77.850908 -0.0569,0.0389 -0.9353,-0.18206 -1.95208,-0.491 z"
         id="path27"
         transform="scale(0.26458333)" /><path
         style="fill:#ffffff;stroke:none;stroke-width:5.43445"
         d="m 815.26874,116.53929 c -4.40603,-1.22793 -8.07389,-2.28705 -8.15082,-2.3536 -0.0769,-0.0666 0.25695,-1.66026 0.74194,-3.54157 1.13675,-4.40955 1.51542,-11.46896 0.85732,-15.982685 C 806.08657,76.618716 792.12434,62.714626 774.46851,60.555354 752.72308,57.895932 733.0341,74.251601 730.81002,96.822536 l -0.28292,2.871105 -1.27861,-0.225124 c -2.1972,-0.386859 -17.76558,-1.87898 -25.85277,-2.477809 -4.25183,-0.31483 -7.83243,-0.674247 -7.95688,-0.7987 -0.12446,-0.124458 1.29683,-2.407411 3.15842,-5.073231 9.14397,-13.094336 19.99474,-25.392792 27.31852,-30.963304 6.76162,-5.14293 21.38764,-11.261656 34.84686,-14.578016 14.85866,-3.661184 26.10704,-4.88155 45.12556,-4.89579 7.83283,-0.0059 14.33325,0.08177 14.44537,0.194745 0.20523,0.206769 3.24243,77.730298 3.04952,77.837838 -0.0569,0.0317 -3.70832,-0.94703 -8.11435,-2.17496 z"
         id="path37"
         transform="scale(0.26458333)" /><path
         style="fill:#ffffff;stroke:none;stroke-width:5.43445"
         d="m 733.51592,152.39359 c -22.25608,-8.21058 -42.81495,-15.78618 -45.68639,-16.83465 l -5.22079,-1.90632 0.25024,-1.3008 c 0.59768,-3.10685 3.40242,-13.99158 4.64892,-18.04165 l 1.35921,-4.4163 2.0916,7e-4 c 5.27407,0.002 36.32995,2.78814 40.41154,3.62578 1.2047,0.24724 1.48758,0.60034 2.68975,3.35743 7.26914,16.67137 24.76505,26.27265 42.30237,23.2144 7.71805,-1.34591 14.50579,-4.78513 20.4145,-10.34362 l 3.34891,-3.15042 3.69081,0.95154 c 8.40986,2.16815 19.82073,5.60124 19.95486,6.00364 0.0817,0.24495 -1.86038,0.9208 -4.4875,1.56171 -17.32883,4.22756 -32.8581,14.72953 -42.83551,28.96835 -1.28145,1.82877 -2.36075,3.30558 -2.39842,3.2818 -0.0377,-0.0238 -18.27803,-6.761 -40.5341,-14.97159 z"
         id="path38"
         transform="scale(0.26458333)" /><path
         style="fill:#ffffff;stroke:none;stroke-width:5.43445"
         d="m 815.26874,116.54609 c -4.40603,-1.22861 -8.07291,-2.28857 -8.14864,-2.35545 -0.0757,-0.0669 0.28675,-1.75427 0.8055,-3.74976 0.78409,-3.01617 0.94471,-4.70221 0.95226,-9.99583 0.008,-5.7004 -0.10963,-6.798184 -1.12379,-10.475862 -3.96817,-14.389861 -14.86765,-25.183401 -28.89328,-28.612448 -4.81465,-1.177108 -12.49101,-1.262522 -17.15912,-0.19093 -16.49151,3.785716 -28.61014,17.438875 -30.72039,34.610368 l -0.48168,3.919448 -1.67568,-0.246257 c -3.14603,-0.462343 -17.2747,-1.826428 -23.65446,-2.283775 -7.55551,-0.541636 -9.85964,-0.7999 -9.85964,-1.105143 0,-0.391813 5.32364,-7.965913 8.75707,-12.458945 6.87664,-8.998865 14.50433,-17.370219 20.07517,-22.032399 9.06433,-7.585859 28.58717,-15.064587 47.99553,-18.385922 11.61161,-1.987086 18.39725,-2.490022 33.75061,-2.501518 7.83283,-0.0059 14.33276,0.08177 14.44429,0.194745 0.20871,0.21141 3.25201,77.715258 3.05635,77.836118 -0.06,0.0371 -3.71407,-0.93782 -8.1201,-2.16644 z"
         id="path44"
         transform="scale(0.26458333)" /><path
         style="fill:#ffffff;stroke:none;stroke-width:5.43445"
         d="m 815.13518,116.50512 c -7.45999,-2.07971 -8.12785,-2.34074 -7.94633,-3.10574 0.10899,-0.45935 0.52571,-2.2217 0.92604,-3.91633 1.09093,-4.61804 1.02345,-13.868636 -0.13486,-18.486816 -3.72112,-14.836081 -14.84811,-26.160538 -29.11924,-29.636023 -4.58813,-1.117361 -12.85639,-1.217116 -17.09591,-0.20626 -7.78861,1.85709 -14.41893,5.713906 -20.07551,11.6778 -5.74116,6.053065 -9.27519,13.438142 -10.52366,21.991312 -0.36889,2.527218 -0.69818,4.639678 -0.73176,4.694354 -0.0336,0.05468 -3.37476,-0.270479 -7.42484,-0.722568 -4.05008,-0.452089 -11.86155,-1.173974 -17.35881,-1.604191 -5.49726,-0.430217 -10.08932,-0.876506 -10.20456,-0.991748 -0.45739,-0.457393 7.89051,-11.99148 14.02348,-19.375905 8.63325,-10.394873 15.52833,-16.723751 22.01865,-20.210537 14.484,-7.781215 32.29664,-12.901577 52.604,-15.121367 6.92724,-0.757215 26.77024,-1.273621 32.4544,-0.844613 l 3.94784,0.297961 0.27037,6.230959 c 0.6636,15.293462 2.72608,71.472772 2.62616,71.533172 -0.061,0.0369 -3.77597,-0.95467 -8.25546,-2.20346 z"
         id="path45"
         transform="scale(0.26458333)" /><text
         xml:space="preserve"
         style="font-size:12.7px;line-height:1.4;font-family:Sketchy;-inkscape-font-specification:Sketchy;fill:#000000;stroke:none;stroke-width:3.49999"
         id="text50"
         transform="rotate(12.405599,161.8855,208.96346)"><textPath
           xlink:href="#path26"
           id="textPath50"
           style="font-style:normal;font-variant:normal;font-weight:normal;font-stretch:normal;line-height:1.4;font-family:'Bitstream Vera Sans';-inkscape-font-specification:'Bitstream Vera Sans';baseline-shift:baseline;fill:#000000;stroke-width:3.5"
           dy="0"
           rotate="0 0 0 0 0 0 0 0 0 0 0 0 0 0 0 0 0 0 0 0">Cantar a los gritos</textPath></text><text
         xml:space="preserve"
         style="font-style:normal;font-variant:normal;font-weight:normal;font-stretch:normal;font-size:12.7px;line-height:1.4;font-family:'Bitstream Vera Sans';-inkscape-font-specification:'Bitstream Vera Sans';fill:#000000;stroke:none;stroke-width:3.49999"
         id="text51"
         transform="rotate(-158.38894,171.15577,174.92207)"><textPath
           xlink:href="#path26"
           id="textPath53"><tspan
             id="tspan50"
             style="stroke-width:3.5">Cantar susurrando</tspan></textPath></text><text
         xml:space="preserve"
         style="font-style:normal;font-variant:normal;font-weight:normal;font-stretch:normal;font-size:12.7px;line-height:1.4;font-family:'Bitstream Vera Sans';-inkscape-font-specification:'Bitstream Vera Sans';fill:#000000;stroke:none;stroke-width:3.49999"
         id="text52"
         transform="rotate(133.07308,170.80289,174.31238)"><textPath
           xlink:href="#path26"
           id="textPath54"><tspan
             id="tspan51"
             style="stroke-width:3.5">Imitar un instrumento</tspan></textPath></text><text
         xml:space="preserve"
         style="font-style:normal;font-variant:normal;font-weight:normal;font-stretch:normal;font-size:12.7px;line-height:1.4;font-family:'Bitstream Vera Sans';-inkscape-font-specification:'Bitstream Vera Sans';fill:#000000;stroke:none;stroke-width:3.49999"
         id="text53"
         transform="rotate(-37.561198,173.88892,164.25438)"><textPath
           xlink:href="#path26"
           id="textPath55"><tspan
             id="tspan52"
             style="stroke-width:3.5">Cantar bailando</tspan></textPath></text><rect
         style="fill:none;stroke-width:2;paint-order:stroke fill markers;stroke:none"
         id="rect1"
         width="350"
         height="350"
         x="0"
         y="1.0658141e-14" /></g></g></svg>
